<svg width="199" height="199" viewBox="0 0 199 199" fill="none" xmlns="http://www.w3.org/2000/svg">
<path d="M99.4844 0.979553H99.0345C44.6179 0.979553 0.504639 45.1059 0.504639 99.5385V99.9884C0.504639 154.421 44.6179 198.547 99.0345 198.547H99.4844C153.901 198.547 198.014 154.421 198.014 99.9884V99.5385C198.014 45.1059 153.901 0.979553 99.4844 0.979553Z" fill="#383D38"/>
<path d="M37.9125 96.3961C38.1893 96.2576 38.4662 96.1261 38.7361 96.0015C43.4277 93.8281 48.1815 91.7931 52.9285 89.7581C53.1845 89.7581 53.6134 89.4605 53.8556 89.3636C54.2223 89.2044 54.5891 89.0521 54.9559 88.8929C55.6617 88.5884 56.3676 88.2907 57.0664 87.9862C58.4781 87.384 59.8827 86.7817 61.2943 86.1796L69.7433 82.5595C75.3759 80.1507 81.0156 77.735 86.6483 75.3262C92.2809 72.9175 97.9204 70.5018 103.553 68.093C109.186 65.6842 114.825 63.2686 120.458 60.8598C126.091 58.451 131.73 56.0353 137.363 53.6265C138.615 53.0866 139.972 52.2837 141.314 52.0484C142.442 51.8476 143.542 51.46 144.677 51.2454C146.829 50.8371 149.202 50.671 151.265 51.5639C151.977 51.8753 152.635 52.3114 153.181 52.8582C155.797 55.447 155.43 59.6969 154.877 63.3377C151.022 88.7129 147.168 114.095 143.307 139.47C142.781 142.952 142.061 146.773 139.314 148.974C136.989 150.836 133.682 151.043 130.81 150.254C127.938 149.458 125.406 147.79 122.921 146.15C112.618 139.325 102.308 132.5 92.0041 125.675C89.5545 124.055 86.8282 121.937 86.8559 118.996C86.8697 117.224 87.9284 115.646 89.0078 114.24C97.962 102.556 110.881 94.5272 120.493 83.3832C121.849 81.8119 122.915 78.974 121.053 78.0673C119.946 77.5274 118.673 78.2611 117.662 78.9602C104.958 87.7854 92.2602 96.6176 79.5555 105.443C75.4106 108.322 71.0651 111.285 66.069 111.991C61.5989 112.628 57.1011 111.382 52.7762 110.108C49.1503 109.042 45.5312 107.949 41.926 106.82C40.0092 106.225 38.0302 105.581 36.5494 104.232C35.0685 102.882 34.2175 100.611 35.1102 98.8118C35.6707 97.6835 36.7571 96.9706 37.8988 96.3892L37.9125 96.3961Z" fill="#FEFFFC"/>
</svg>
