<svg width="199" height="199" viewBox="0 0 199 199" fill="none" xmlns="http://www.w3.org/2000/svg">
<path d="M99.8074 0.979553H99.3576C44.941 0.979553 0.827637 45.1059 0.827637 99.5385V99.9884C0.827637 154.421 44.941 198.547 99.3576 198.547H99.8074C154.224 198.547 198.337 154.421 198.337 99.9884V99.5385C198.337 45.1059 154.224 0.979553 99.8074 0.979553Z" fill="#383D38"/>
<path d="M118.83 128.658C93.5519 128.658 72.9865 108.08 72.9796 82.7948C72.9865 76.3852 78.204 71.1731 84.5978 71.1731C85.2552 71.1731 85.9056 71.2285 86.5284 71.3392C87.8985 71.5677 89.1994 72.0314 90.3965 72.7305C90.5695 72.8343 90.6871 73.0005 90.7148 73.1943L93.3858 90.0349C93.4204 90.2287 93.3582 90.4295 93.2267 90.5748C91.7528 92.2084 89.8706 93.3851 87.7739 93.9734L86.7637 94.2572L87.1442 95.2332C90.5902 104.01 97.6069 111.022 106.388 114.483L107.364 114.87L107.647 113.86C108.236 111.762 109.412 109.88 111.045 108.405C111.163 108.295 111.322 108.239 111.481 108.239C111.516 108.239 111.55 108.239 111.592 108.246L128.427 110.918C128.628 110.953 128.794 111.063 128.898 111.236C129.59 112.434 130.053 113.742 130.289 115.112C130.399 115.722 130.448 116.365 130.448 117.037C130.448 123.439 125.237 128.651 118.83 128.658Z" fill="#FDFDFD"/>
<path d="M163.656 94.2157C162.292 78.8079 155.234 64.5144 143.782 53.9726C132.261 43.3684 117.314 37.5265 101.683 37.5265C67.3746 37.5265 39.4605 65.4488 39.4605 99.7669C39.4605 111.285 42.6366 122.505 48.6498 132.278L35.2394 161.973L78.1763 157.398C85.6427 160.457 93.545 162.007 101.676 162.007C103.814 162.007 106.007 161.897 108.208 161.668C110.145 161.461 112.104 161.156 114.027 160.768C142.758 154.961 163.732 129.454 163.898 100.099V99.7669C163.898 97.898 163.815 96.0292 163.649 94.2226L163.656 94.2157ZM79.8301 144.364L56.0747 146.897L63.1675 131.178L61.7489 129.274C61.6451 129.136 61.5413 128.998 61.4237 128.838C55.2651 120.331 52.0128 110.281 52.0128 99.7738C52.0128 72.3775 74.2943 50.0895 101.683 50.0895C127.341 50.0895 149.09 70.1141 151.186 95.6762C151.297 97.0467 151.359 98.4241 151.359 99.7808C151.359 100.168 151.352 100.549 151.345 100.957C150.82 123.875 134.814 143.339 112.422 148.295C110.713 148.676 108.962 148.967 107.218 149.154C105.405 149.361 103.544 149.465 101.696 149.465C95.1158 149.465 88.722 148.192 82.681 145.672C82.0098 145.402 81.3524 145.111 80.7366 144.814L79.8371 144.378L79.8301 144.364Z" fill="#FDFDFD"/>
</svg>
