<svg width="198" height="199" viewBox="0 0 198 199" fill="none" xmlns="http://www.w3.org/2000/svg">
<path d="M99.0101 0.979553H98.5604C44.1438 0.979553 0.0305176 45.1059 0.0305176 99.5385V99.9884C0.0305176 154.421 44.1438 198.547 98.5604 198.547H99.0101C153.427 198.547 197.54 154.421 197.54 99.9884V99.5385C197.54 45.1059 153.427 0.979553 99.0101 0.979553Z" fill="#383D38"/>
<path d="M148.21 54.4086C139.117 50.2348 129.374 47.1615 119.181 45.4034C118.995 45.3688 118.808 45.4519 118.718 45.6249C117.465 47.8537 116.074 50.7678 115.106 53.052C104.145 51.4115 93.2393 51.4115 82.4999 53.052C81.5242 50.7124 80.0849 47.8537 78.8255 45.6249C78.7286 45.4588 78.5418 45.3757 78.3619 45.4034C68.1761 47.1615 58.4262 50.2348 49.3337 54.4086C49.2576 54.4432 49.1884 54.4986 49.1399 54.5747C30.6504 82.2064 25.5851 109.16 28.0692 135.781C28.0831 135.912 28.1523 136.037 28.2561 136.113C40.4556 145.077 52.2746 150.517 63.872 154.124C64.0589 154.179 64.2526 154.11 64.3703 153.957C67.1105 150.213 69.5601 146.26 71.6567 142.1C71.7813 141.858 71.6567 141.567 71.4076 141.471C67.5256 139.996 63.8373 138.203 60.2806 136.168C59.9969 136.002 59.9762 135.601 60.2323 135.407C60.9796 134.846 61.7269 134.265 62.4396 133.677C62.5711 133.566 62.751 133.545 62.9032 133.614C86.2434 144.274 111.514 144.274 134.578 133.614C134.73 133.538 134.91 133.566 135.041 133.67C135.754 134.258 136.501 134.846 137.256 135.407C137.512 135.601 137.498 136.002 137.214 136.168C133.664 138.245 129.969 140.003 126.08 141.471C125.824 141.567 125.713 141.858 125.838 142.107C127.983 146.253 130.426 150.206 133.118 153.957C133.228 154.117 133.429 154.186 133.616 154.13C145.269 150.524 157.088 145.084 169.287 136.12C169.391 136.044 169.46 135.919 169.474 135.795C172.449 105.021 164.492 78.2887 148.389 54.5886C148.348 54.5125 148.286 54.4502 148.203 54.4156L148.21 54.4086ZM75.1303 119.57C68.0998 119.57 62.3151 113.119 62.3151 105.194C62.3151 97.2682 67.9961 90.8171 75.1303 90.8171C82.2645 90.8171 88.0633 97.3305 87.9456 105.194C87.9456 113.119 82.2645 119.57 75.1303 119.57ZM122.523 119.57C115.493 119.57 109.708 113.119 109.708 105.194C109.708 97.2682 115.389 90.8171 122.523 90.8171C129.658 90.8171 135.456 97.3305 135.339 105.194C135.339 113.119 129.72 119.57 122.523 119.57Z" fill="white"/>
</svg>
